<!DOCTYPE svg PUBLIC "-//W3C//DTD SVG 1.1//EN" "http://www.w3.org/Graphics/SVG/1.1/DTD/svg11.dtd">
<!-- Uploaded to: SVG Repo, www.svgrepo.com, Transformed by: SVG Repo Mixer Tools -->
<svg width="800px" height="800px" viewBox="0 0 24 24" id="Layer_1" data-name="Layer 1" xmlns="http://www.w3.org/2000/svg" fill="#000000">
<g id="SVGRepo_bgCarrier" stroke-width="0"/>
<g id="SVGRepo_tracerCarrier" stroke-linecap="round" stroke-linejoin="round"/>
<g id="SVGRepo_iconCarrier">
<defs>
<style>.cls-1{fill:none;stroke:#ffffff;stroke-miterlimit:10;stroke-width:1.91px;}</style>
</defs>
<path class="cls-1" d="M8.17,1.5h7.65a0,0,0,0,1,0,0V8.2A3.83,3.83,0,0,1,12,12h0A3.83,3.83,0,0,1,8.17,8.2V1.5a0,0,0,0,1,0,0Z"/>
<line class="cls-1" x1="8.17" y1="5.33" x2="18.7" y2="5.33"/>
<path class="cls-1" d="M4.35,23.5V19.67A7.65,7.65,0,0,1,12,12h0a7.65,7.65,0,0,1,7.65,7.65V23.5"/>
<line class="cls-1" x1="9.13" y1="17.76" x2="11.04" y2="17.76"/>
<line class="cls-1" x1="9.13" y1="21.59" x2="11.04" y2="21.59"/>
<polyline class="cls-1" points="8.93 12.66 12.96 15.85 12.96 23.5"/>
</g>
</svg>